<!-- Generated by IcoMoon.io -->
<svg version="1.1" xmlns="http://www.w3.org/2000/svg" width="48" height="32" viewBox="0 0 48 32">
<title>Group-1</title>
<path fill="#222" opacity="0.6" d="M16 8.727h17.455v16h-17.455v-16z"></path>
<path fill="#fdf3ed" d="M45.576 5.347c-0.264-0.94-0.777-1.791-1.486-2.463-0.729-0.692-1.622-1.188-2.595-1.439-3.642-0.96-18.234-0.96-18.234-0.96-6.083-0.069-12.165 0.235-18.211 0.911-0.973 0.27-1.865 0.776-2.595 1.474-0.718 0.69-1.237 1.542-1.509 2.475-0.652 3.514-0.969 7.081-0.946 10.655-0.023 3.57 0.293 7.137 0.946 10.655 0.266 0.929 0.784 1.777 1.503 2.461s1.616 1.179 2.601 1.441c3.691 0.958 18.211 0.958 18.211 0.958 6.091 0.069 12.18-0.235 18.234-0.912 0.973-0.251 1.866-0.747 2.595-1.439 0.708-0.672 1.221-1.523 1.484-2.463 0.669-3.512 0.995-7.081 0.972-10.657 0.050-3.591-0.275-7.177-0.97-10.7v0.002zM18.622 22.64v-13.279l12.14 6.64-12.14 6.639z"></path>
</svg>
