<svg width="33" height="32" viewBox="0 0 33 32" fill="none" xmlns="http://www.w3.org/2000/svg">
<rect x="11" y="11" width="12" height="11" fill="white"/>
<path d="M31.3334 8.676C31.1522 8.02964 30.7992 7.44446 30.312 6.98267C29.8111 6.50667 29.1971 6.16618 28.528 5.99333C26.024 5.33333 15.992 5.33333 15.992 5.33333C11.8098 5.28575 7.6286 5.49503 3.47203 5.96C2.80295 6.14562 2.19011 6.49372 1.68803 6.97333C1.1947 7.448 0.837363 8.03333 0.650696 8.67467C0.202287 11.0903 -0.0155812 13.5431 2.94539e-05 16C-0.0159705 18.4547 0.201363 20.9067 0.650696 23.3253C0.833363 23.964 1.18936 24.5467 1.68403 25.0173C2.1787 25.488 2.7947 25.828 3.47203 26.008C6.00936 26.6667 15.992 26.6667 15.992 26.6667C20.1796 26.7143 24.3661 26.505 28.528 26.04C29.1971 25.8672 29.8111 25.5267 30.312 25.0507C30.799 24.589 31.1516 24.0037 31.332 23.3573C31.7921 20.9426 32.0159 18.4888 32 16.0307C32.0346 13.5621 31.8112 11.0968 31.3334 8.67467V8.676ZM12.8027 20.5653V11.436L21.1494 16.0013L12.8027 20.5653Z" fill="#EA8644"/>
</svg>
